<svg xmlns="http://www.w3.org/2000/svg" xmlns:xlink="http://www.w3.org/1999/xlink" width="244" zoomAndPan="magnify" viewBox="0 0 183 201.75" height="269" preserveAspectRatio="xMidYMid meet" version="1.0"><defs><g/><clipPath id="9f2285cca2"><path d="M 0.113281 6.832031 L 172.832031 6.832031 L 172.832031 179.550781 L 0.113281 179.550781 Z M 0.113281 6.832031 " clip-rule="nonzero"/></clipPath><clipPath id="3641b3825e"><path d="M 86.472656 6.832031 C 38.777344 6.832031 0.113281 45.496094 0.113281 93.191406 C 0.113281 140.886719 38.777344 179.550781 86.472656 179.550781 C 134.167969 179.550781 172.832031 140.886719 172.832031 93.191406 C 172.832031 45.496094 134.167969 6.832031 86.472656 6.832031 Z M 86.472656 6.832031 " clip-rule="nonzero"/></clipPath></defs><g clip-path="url(#9f2285cca2)"><g clip-path="url(#3641b3825e)"><path stroke-linecap="butt" transform="matrix(0.749072, 0, 0, 0.749072, 0.113242, 6.831711)" fill="none" stroke-linejoin="miter" d="M 115.288574 0.000427253 C 51.616018 0.000427253 0.0000519339 51.616394 0.0000519339 115.288949 C 0.0000519339 178.961504 51.616018 230.577471 115.288574 230.577471 C 178.961129 230.577471 230.577095 178.961504 230.577095 115.288949 C 230.577095 51.616394 178.961129 0.000427253 115.288574 0.000427253 Z M 115.288574 0.000427253 " stroke="#000000" stroke-width="12" stroke-opacity="1" stroke-miterlimit="4"/></g></g><g fill="#000000" fill-opacity="1"><g transform="translate(49.005839, 96.628229)"><g><path d="M 6.40625 -0.46875 C 7.269531 -0.46875 7.703125 -0.898438 7.703125 -1.765625 L 7.703125 -72.6875 C 7.703125 -73.550781 7.269531 -73.984375 6.40625 -73.984375 C 6.09375 -73.984375 5.9375 -74.140625 5.9375 -74.453125 C 5.9375 -74.753906 6.09375 -74.90625 6.40625 -74.90625 L 12.0625 -74.90625 C 12.3125 -74.90625 12.4375 -74.753906 12.4375 -74.453125 C 12.4375 -74.140625 12.3125 -73.984375 12.0625 -73.984375 C 11.132812 -73.984375 10.671875 -73.550781 10.671875 -72.6875 L 10.671875 -33.609375 C 10.671875 -32.492188 11.054688 -31.5625 11.828125 -30.8125 C 12.609375 -30.070312 13.554688 -29.703125 14.671875 -29.703125 C 16.148438 -29.703125 17.265625 -30.320312 18.015625 -31.5625 L 43.265625 -72.96875 C 43.503906 -73.332031 43.5625 -73.609375 43.4375 -73.796875 C 43.375 -73.921875 43.222656 -73.984375 42.984375 -73.984375 C 42.671875 -73.984375 42.515625 -74.140625 42.515625 -74.453125 C 42.515625 -74.753906 42.671875 -74.90625 42.984375 -74.90625 L 46.5 -74.90625 C 46.75 -74.90625 46.875 -74.753906 46.875 -74.453125 C 46.875 -74.140625 46.75 -73.984375 46.5 -73.984375 C 45.507812 -73.984375 44.675781 -73.488281 44 -72.5 L 26.078125 -43.078125 L 48.265625 -4.453125 C 49.628906 -1.984375 51.703125 -0.65625 54.484375 -0.46875 C 54.796875 -0.46875 54.953125 -0.3125 54.953125 0 C 54.953125 0.3125 54.796875 0.46875 54.484375 0.46875 C 52.253906 0.34375 50.210938 -0.289062 48.359375 -1.4375 C 46.503906 -2.582031 45.019531 -4.113281 43.90625 -6.03125 L 24.140625 -39.828125 L 18.84375 -31.09375 C 17.851562 -29.550781 16.460938 -28.78125 14.671875 -28.78125 C 12.992188 -28.78125 11.660156 -29.457031 10.671875 -30.8125 L 10.671875 -1.765625 C 10.671875 -0.898438 11.132812 -0.46875 12.0625 -0.46875 C 12.3125 -0.46875 12.4375 -0.3125 12.4375 0 C 12.4375 0.3125 12.3125 0.46875 12.0625 0.46875 L 6.40625 0.46875 C 6.09375 0.46875 5.9375 0.3125 5.9375 0 C 5.9375 -0.3125 6.09375 -0.46875 6.40625 -0.46875 Z M 6.40625 -0.46875 "/></g></g></g><g fill="#000000" fill-opacity="1"><g transform="translate(69.884228, 149.919563)"><g><path d="M 6.40625 -0.46875 C 7.269531 -0.46875 7.703125 -0.898438 7.703125 -1.765625 L 7.703125 -73.53125 C 7.273438 -73.84375 6.84375 -74 6.40625 -74 C 6.09375 -74 5.9375 -74.148438 5.9375 -74.453125 C 5.9375 -74.765625 6.09375 -74.921875 6.40625 -74.921875 L 10.484375 -74.921875 C 10.671875 -74.921875 10.796875 -74.828125 10.859375 -74.640625 L 41.6875 -3.25 L 72.515625 -74.640625 C 72.515625 -74.640625 72.546875 -74.671875 72.609375 -74.734375 C 72.609375 -74.796875 72.609375 -74.828125 72.609375 -74.828125 C 72.609375 -74.828125 72.640625 -74.859375 72.703125 -74.921875 C 72.765625 -74.921875 72.796875 -74.921875 72.796875 -74.921875 C 72.847656 -74.921875 72.90625 -74.921875 72.96875 -74.921875 L 76.78125 -74.921875 C 77.09375 -74.921875 77.25 -74.765625 77.25 -74.453125 C 77.25 -74.148438 77.09375 -74 76.78125 -74 C 75.914062 -74 75.484375 -73.566406 75.484375 -72.703125 L 75.484375 -1.765625 C 75.484375 -0.898438 75.914062 -0.46875 76.78125 -0.46875 C 77.09375 -0.46875 77.25 -0.3125 77.25 0 C 77.25 0.3125 77.09375 0.46875 76.78125 0.46875 L 71.21875 0.46875 C 70.90625 0.46875 70.75 0.3125 70.75 0 C 70.75 -0.3125 70.90625 -0.46875 71.21875 -0.46875 C 72.082031 -0.46875 72.515625 -0.898438 72.515625 -1.765625 L 72.515625 -72.328125 L 41.03125 0.75 L 40.9375 0.75 C 40.9375 0.75 40.9375 0.773438 40.9375 0.828125 C 40.9375 0.828125 40.90625 0.859375 40.84375 0.921875 C 40.789062 0.984375 40.765625 1.015625 40.765625 1.015625 C 40.816406 0.953125 40.816406 0.953125 40.765625 1.015625 C 40.703125 1.015625 40.640625 1.015625 40.578125 1.015625 C 40.515625 1.015625 40.453125 1.015625 40.390625 1.015625 C 40.453125 1.015625 40.421875 1.015625 40.296875 1.015625 C 40.296875 0.953125 40.296875 0.953125 40.296875 1.015625 C 40.359375 1.015625 40.359375 0.984375 40.296875 0.921875 C 40.234375 0.921875 40.171875 0.890625 40.109375 0.828125 C 40.109375 0.828125 40.109375 0.8125 40.109375 0.78125 C 40.109375 0.757812 40.109375 0.75 40.109375 0.75 L 8.640625 -72.328125 L 8.640625 -1.765625 C 8.640625 -0.898438 9.070312 -0.46875 9.9375 -0.46875 C 10.25 -0.46875 10.40625 -0.3125 10.40625 0 C 10.40625 0.3125 10.25 0.46875 9.9375 0.46875 L 6.40625 0.46875 C 6.09375 0.46875 5.9375 0.3125 5.9375 0 C 5.9375 -0.3125 6.09375 -0.46875 6.40625 -0.46875 Z M 6.40625 -0.46875 "/></g></g></g><g fill="#1d1d1d" fill-opacity="1"><g transform="translate(40.950593, 122.481332)"><g><path d="M 20.875 -20.6875 C 22.269531 -20.519531 23.507812 -20.128906 24.59375 -19.515625 C 25.6875 -18.898438 26.554688 -18.125 27.203125 -17.1875 C 27.847656 -16.257812 28.171875 -15.257812 28.171875 -14.1875 C 28.171875 -13.132812 27.867188 -12.132812 27.265625 -11.1875 C 26.660156 -10.238281 25.816406 -9.460938 24.734375 -8.859375 L 21.78125 -7.125 C 21.78125 -5.601562 21.234375 -4.207031 20.140625 -2.9375 C 19.054688 -1.664062 17.59375 -0.726562 15.75 -0.125 C 15.695312 -0.125 15.695312 -0.125 15.75 -0.125 C 14.59375 0.25 13.375 0.4375 12.09375 0.4375 L 11.8125 0.46875 C 11.757812 0.46875 11.707031 0.46875 11.65625 0.46875 C 11.601562 0.46875 11.550781 0.457031 11.5 0.4375 L 11.03125 0.4375 C 9.53125 0.4375 8.171875 0.0703125 6.953125 -0.65625 C 5.734375 -1.394531 4.753906 -2.390625 4.015625 -3.640625 C 3.285156 -4.890625 2.921875 -6.265625 2.921875 -7.765625 C 2.921875 -9.078125 3.191406 -10.289062 3.734375 -11.40625 C 4.285156 -12.519531 5.046875 -13.460938 6.015625 -14.234375 C 6.992188 -15.015625 8.085938 -15.535156 9.296875 -15.796875 C 8.085938 -16.054688 6.992188 -16.570312 6.015625 -17.34375 C 5.046875 -18.125 4.285156 -19.070312 3.734375 -20.1875 C 3.191406 -21.300781 2.921875 -22.515625 2.921875 -23.828125 C 2.921875 -25.347656 3.285156 -26.722656 4.015625 -27.953125 C 4.753906 -29.191406 5.734375 -30.1875 6.953125 -30.9375 C 8.171875 -31.6875 9.53125 -32.0625 11.03125 -32.0625 L 11.5 -32.0625 C 11.5 -32.0625 11.515625 -32.0625 11.546875 -32.0625 C 11.722656 -32.0625 11.863281 -32.0625 11.96875 -32.0625 C 13.28125 -32.0625 14.539062 -31.863281 15.75 -31.46875 C 17.59375 -30.894531 19.054688 -29.96875 20.140625 -28.6875 C 21.234375 -27.414062 21.78125 -26.007812 21.78125 -24.46875 C 21.78125 -24.332031 21.71875 -24.265625 21.59375 -24.265625 L 20.515625 -24.265625 C 20.460938 -24.265625 20.425781 -24.289062 20.40625 -24.34375 C 20.351562 -24.394531 20.328125 -24.445312 20.328125 -24.5 C 20.453125 -25.207031 20.429688 -25.972656 20.265625 -26.796875 C 20.097656 -27.628906 19.660156 -28.425781 18.953125 -29.1875 C 18.242188 -29.945312 17.140625 -30.59375 15.640625 -31.125 C 14.453125 -31.488281 13.226562 -31.671875 11.96875 -31.671875 C 11.863281 -31.671875 11.722656 -31.671875 11.546875 -31.671875 C 11.546875 -31.671875 11.53125 -31.671875 11.5 -31.671875 C 10.1875 -31.671875 8.984375 -31.316406 7.890625 -30.609375 C 6.804688 -29.898438 5.941406 -28.953125 5.296875 -27.765625 C 4.648438 -26.585938 4.328125 -25.273438 4.328125 -23.828125 C 4.328125 -22.390625 4.648438 -21.082031 5.296875 -19.90625 C 5.941406 -18.738281 6.800781 -17.800781 7.875 -17.09375 C 8.957031 -16.382812 10.15625 -16.019531 11.46875 -16 C 11.800781 -16.9375 12.390625 -17.769531 13.234375 -18.5 C 14.078125 -19.238281 15.085938 -19.804688 16.265625 -20.203125 C 16.265625 -20.203125 16.28125 -20.203125 16.3125 -20.203125 C 17.363281 -20.546875 18.460938 -20.734375 19.609375 -20.765625 C 19.929688 -20.765625 20.222656 -20.75 20.484375 -20.71875 C 20.554688 -20.71875 20.6875 -20.707031 20.875 -20.6875 Z M 15.640625 -0.515625 C 16.953125 -0.960938 17.953125 -1.515625 18.640625 -2.171875 C 19.335938 -2.828125 19.8125 -3.515625 20.0625 -4.234375 C 20.3125 -4.953125 20.425781 -5.65625 20.40625 -6.34375 L 15.125 -3.234375 C 13.675781 -2.390625 12.742188 -1.296875 12.328125 0.046875 C 13.484375 0.015625 14.585938 -0.171875 15.640625 -0.515625 Z M 24.1875 -10.046875 C 25.132812 -10.597656 25.867188 -11.273438 26.390625 -12.078125 C 26.910156 -12.878906 27.171875 -13.722656 27.171875 -14.609375 C 27.171875 -15.554688 26.894531 -16.429688 26.34375 -17.234375 C 25.800781 -18.035156 25.054688 -18.703125 24.109375 -19.234375 C 23.160156 -19.773438 22.082031 -20.125 20.875 -20.28125 C 20.851562 -20.28125 20.84375 -20.28125 20.84375 -20.28125 C 20.65625 -20.3125 20.519531 -20.328125 20.4375 -20.328125 C 20.207031 -20.347656 19.929688 -20.359375 19.609375 -20.359375 C 18.515625 -20.359375 17.46875 -20.191406 16.46875 -19.859375 C 16.4375 -19.859375 16.421875 -19.859375 16.421875 -19.859375 C 16.398438 -19.859375 16.398438 -19.859375 16.421875 -19.859375 C 15.140625 -19.410156 14.195312 -18.859375 13.59375 -18.203125 C 12.988281 -17.546875 12.613281 -16.863281 12.46875 -16.15625 C 12.320312 -15.445312 12.300781 -14.773438 12.40625 -14.140625 C 12.40625 -14.085938 12.394531 -14.035156 12.375 -13.984375 C 12.320312 -13.953125 12.269531 -13.9375 12.21875 -13.9375 L 11.3125 -13.9375 C 11.175781 -13.9375 11.109375 -13.992188 11.109375 -14.109375 C 11.109375 -14.597656 11.175781 -15.09375 11.3125 -15.59375 C 10.019531 -15.539062 8.84375 -15.160156 7.78125 -14.453125 C 6.71875 -13.742188 5.875 -12.804688 5.25 -11.640625 C 4.632812 -10.472656 4.328125 -9.179688 4.328125 -7.765625 C 4.328125 -6.367188 4.632812 -5.09375 5.25 -3.9375 C 5.875 -2.78125 6.703125 -1.84375 7.734375 -1.125 C 8.773438 -0.40625 9.9375 -0.015625 11.21875 0.046875 C 11.507812 -1.796875 12.628906 -3.28125 14.578125 -4.40625 Z M 24.1875 -10.046875 "/></g></g></g></svg>